<svg xmlns="http://www.w3.org/2000/svg" version="1.1" xmlns:xlink="http://www.w3.org/1999/xlink" xmlns:svgjs="http://svgjs.dev/svgjs" width="1500" height="270" viewBox="0 0 1500 270"><g transform="matrix(1,0,0,1,-1.1605089314982706,0.5772413793103226)"><svg viewBox="0 0 322 58" data-background-color="#f8f8f8" preserveAspectRatio="xMidYMid meet" height="270" width="1500" xmlns="http://www.w3.org/2000/svg" xmlns:xlink="http://www.w3.org/1999/xlink"><g id="tight-bounds" transform="matrix(1,0,0,1,0.249122583961622,-0.12399999999999523)"><svg viewBox="0 0 321.50175483207676 58.248" height="58.248" width="321.50175483207676"><g><svg viewBox="0 0 321.50175483207676 58.248" height="58.248" width="321.50175483207676"><g><svg viewBox="0 0 321.50175483207676 58.248" height="58.248" width="321.50175483207676"><g id="textblocktransform"><svg viewBox="0 0 321.50175483207676 58.248" height="58.248" width="321.50175483207676" id="textblock"><g><svg viewBox="0 0 321.50175483207676 58.248" height="58.248" width="321.50175483207676"><g><svg><g></g><g></g></svg></g><g><svg><g></g><g><svg></svg></g></svg></g><g id="text-0"><svg viewBox="0 0 321.50175483207676 58.248" height="58.248" width="321.50175483207676"><g><svg xmlns="http://www.w3.org/2000/svg" xmlns:xlink="http://www.w3.org/1999/xlink" version="1.1" x="0" y="0" viewBox="0 5.312 100 93.376" enable-background="new 0 0 100 100" xml:space="preserve" height="58.248" width="62.38005483207676" class="icon-cg-0" data-fill-palette-color="accent" id="cg-0"><polygon points="91.822,10.995 91.822,5.312 52.71,29.765 " fill="#c8c8c8" data-fill-palette-color="accent"></polygon><polygon points="52.71,31.876 52.71,98.688 100,76.418 100,9.605 " fill="#c8c8c8" data-fill-palette-color="accent"></polygon><polygon points="8.178,10.995 8.178,5.312 47.29,29.765 " fill="#c8c8c8" data-fill-palette-color="accent"></polygon><polygon points="47.29,31.876 47.29,98.688 0,76.418 0,9.605 " fill="#c8c8c8" data-fill-palette-color="accent"></polygon></svg></g><g transform="matrix(1,0,0,1,76.13205483207676,0)"><svg width="245.3697" viewBox="2.05 -35.5 151.63 36" height="58.248" data-palette-color="#61777f"><path d="M2.05 0L2.05-35 7.55-35 7.55 0 2.05 0ZM10.55 0L10.55-4.9 20.75-30 11.05-30 11.05-35 26.65-35 26.65-30.1 16.45-5 26.65-5 26.65 0 10.55 0ZM28.9 0L28.9-4.9 39.1-30 29.4-30 29.4-35 45-35 45-30.1 34.8-5 45-5 45 0 28.9 0ZM48.09 0L48.09-35 53.59-35 53.59 0 48.09 0ZM57.69 0L57.69-35 65.99-35Q70.24-35 72.19-33.02 74.14-31.05 74.14-26.95L74.14-26.95 74.14-25.55Q74.14-22.85 73.27-21.15 72.39-19.45 70.59-18.7L70.59-18.7 70.59-18.6Q74.69-17.2 74.69-11.3L74.69-11.3 74.69-8.3Q74.69-4.25 72.57-2.13 70.44 0 66.34 0L66.34 0 57.69 0ZM63.19-20.75L65.34-20.75Q66.99-20.75 67.82-21.6 68.64-22.45 68.64-24.45L68.64-24.45 68.64-26.4Q68.64-28.3 67.97-29.15 67.29-30 65.84-30L65.84-30 63.19-30 63.19-20.75ZM63.19-5L66.34-5Q67.79-5 68.49-5.78 69.19-6.55 69.19-8.45L69.19-8.45 69.19-11.5Q69.19-13.9 68.37-14.83 67.54-15.75 65.64-15.75L65.64-15.75 63.19-15.75 63.19-5ZM85.84 0.5Q81.79 0.5 79.64-1.8 77.49-4.1 77.49-8.3L77.49-8.3 77.49-26.7Q77.49-30.9 79.64-33.2 81.79-35.5 85.84-35.5L85.84-35.5Q89.89-35.5 92.04-33.2 94.19-30.9 94.19-26.7L94.19-26.7 94.19-8.3Q94.19-4.1 92.04-1.8 89.89 0.5 85.84 0.5L85.84 0.5ZM85.84-4.5Q88.69-4.5 88.69-7.95L88.69-7.95 88.69-27.05Q88.69-30.5 85.84-30.5L85.84-30.5Q82.99-30.5 82.99-27.05L82.99-27.05 82.99-7.95Q82.99-4.5 85.84-4.5L85.84-4.5ZM105.84 0.5Q101.79 0.5 99.64-1.8 97.49-4.1 97.49-8.3L97.49-8.3 97.49-26.7Q97.49-30.9 99.64-33.2 101.79-35.5 105.84-35.5L105.84-35.5Q109.89-35.5 112.04-33.2 114.19-30.9 114.19-26.7L114.19-26.7 114.19-8.3Q114.19-4.1 112.04-1.8 109.89 0.5 105.84 0.5L105.84 0.5ZM105.84-4.5Q108.69-4.5 108.69-7.95L108.69-7.95 108.69-27.05Q108.69-30.5 105.84-30.5L105.84-30.5Q102.99-30.5 102.99-27.05L102.99-27.05 102.99-7.95Q102.99-4.5 105.84-4.5L105.84-4.5ZM117.88 0L117.88-35 123.38-35 123.38-20.25 130.38-35 135.88-35 129.33-22.15 135.98 0 130.23 0 125.58-15.6 123.38-11.15 123.38 0 117.88 0ZM145.38 0.5Q141.38 0.5 139.33-1.78 137.28-4.05 137.28-8.3L137.28-8.3 137.28-10.3 142.48-10.3 142.48-7.9Q142.48-4.5 145.33-4.5L145.33-4.5Q146.73-4.5 147.46-5.33 148.18-6.15 148.18-8L148.18-8Q148.18-10.2 147.18-11.88 146.18-13.55 143.48-15.9L143.48-15.9Q140.08-18.9 138.73-21.33 137.38-23.75 137.38-26.8L137.38-26.8Q137.38-30.95 139.48-33.23 141.58-35.5 145.58-35.5L145.58-35.5Q149.53-35.5 151.56-33.23 153.58-30.95 153.58-26.7L153.58-26.7 153.58-25.25 148.38-25.25 148.38-27.05Q148.38-28.85 147.68-29.68 146.98-30.5 145.63-30.5L145.63-30.5Q142.88-30.5 142.88-27.15L142.88-27.15Q142.88-25.25 143.91-23.6 144.93-21.95 147.63-19.6L147.63-19.6Q151.08-16.6 152.38-14.15 153.68-11.7 153.68-8.4L153.68-8.4Q153.68-4.1 151.56-1.8 149.43 0.5 145.38 0.5L145.38 0.5Z" opacity="1" transform="matrix(1,0,0,1,0,0)" fill="#61777f" class="wordmark-text-0" data-fill-palette-color="primary"></path></svg></g></svg></g></svg></g></svg></g></svg></g></svg></g><defs></defs></svg><rect width="321.50175483207676" height="58.248" fill="none" stroke="none" visibility="hidden"></rect></g></svg></g></svg>